<svg xmlns="http://www.w3.org/2000/svg" xmlns:xlink="http://www.w3.org/1999/xlink" width="2000" zoomAndPan="magnify" viewBox="0 0 1500 449.999984" height="600" preserveAspectRatio="xMidYMid meet" version="1.2"><defs><clipPath id="4c97ed3c2f"><path d="M 22 93 L 214 93 L 214 161 L 22 161 Z M 22 93 "/></clipPath><clipPath id="b65a62b492"><path d="M 22.011719 94.046875 L 22.011719 160.40625 L 49.660156 160.40625 L 49.660156 121.695312 C 83.015625 121.425781 97.109375 129.402344 118.390625 152.507812 C 135.675781 134.925781 144.421875 125.320312 186.332031 121.695312 L 186.332031 160.40625 L 213.191406 160.40625 L 213.191406 94.046875 C 164.742188 91.988281 144.410156 97.042969 118.390625 115.375 C 89.691406 94.160156 67.039062 93.257812 22.011719 94.046875 Z M 22.011719 94.046875 "/></clipPath><linearGradient x1="89.999998" gradientTransform="matrix(1.58,0,0,1.58,-120.189406,-11.81369)" y1="66" x2="210.999994" gradientUnits="userSpaceOnUse" y2="66" id="33aff79bb3"><stop style="stop-color:#ff0158;stop-opacity:1;" offset="0"/><stop style="stop-color:#ff0158;stop-opacity:1;" offset="0.015625"/><stop style="stop-color:#ff0157;stop-opacity:1;" offset="0.03125"/><stop style="stop-color:#ff0157;stop-opacity:1;" offset="0.046875"/><stop style="stop-color:#ff0156;stop-opacity:1;" offset="0.0625"/><stop style="stop-color:#ff0155;stop-opacity:1;" offset="0.078125"/><stop style="stop-color:#ff0155;stop-opacity:1;" offset="0.09375"/><stop style="stop-color:#ff0154;stop-opacity:1;" offset="0.109375"/><stop style="stop-color:#ff0154;stop-opacity:1;" offset="0.125"/><stop style="stop-color:#ff0153;stop-opacity:1;" offset="0.140625"/><stop style="stop-color:#ff0152;stop-opacity:1;" offset="0.15625"/><stop style="stop-color:#ff0152;stop-opacity:1;" offset="0.171875"/><stop style="stop-color:#ff0151;stop-opacity:1;" offset="0.1875"/><stop style="stop-color:#ff0151;stop-opacity:1;" offset="0.203125"/><stop style="stop-color:#ff0150;stop-opacity:1;" offset="0.21875"/><stop style="stop-color:#ff0150;stop-opacity:1;" offset="0.234375"/><stop style="stop-color:#ff014f;stop-opacity:1;" offset="0.25"/><stop style="stop-color:#ff014e;stop-opacity:1;" offset="0.265625"/><stop style="stop-color:#ff014e;stop-opacity:1;" offset="0.28125"/><stop style="stop-color:#ff014d;stop-opacity:1;" offset="0.296875"/><stop style="stop-color:#ff014d;stop-opacity:1;" offset="0.3125"/><stop style="stop-color:#ff014c;stop-opacity:1;" offset="0.328125"/><stop style="stop-color:#ff014c;stop-opacity:1;" offset="0.34375"/><stop style="stop-color:#ff014b;stop-opacity:1;" offset="0.359375"/><stop style="stop-color:#ff014a;stop-opacity:1;" offset="0.375"/><stop style="stop-color:#ff014a;stop-opacity:1;" offset="0.390625"/><stop style="stop-color:#ff0149;stop-opacity:1;" offset="0.40625"/><stop style="stop-color:#ff0149;stop-opacity:1;" offset="0.421875"/><stop style="stop-color:#ff0148;stop-opacity:1;" offset="0.4375"/><stop style="stop-color:#ff0148;stop-opacity:1;" offset="0.453125"/><stop style="stop-color:#ff0147;stop-opacity:1;" offset="0.46875"/><stop style="stop-color:#ff0146;stop-opacity:1;" offset="0.484375"/><stop style="stop-color:#ff0146;stop-opacity:1;" offset="0.5"/><stop style="stop-color:#ff0145;stop-opacity:1;" offset="0.515625"/><stop style="stop-color:#ff0145;stop-opacity:1;" offset="0.53125"/><stop style="stop-color:#ff0144;stop-opacity:1;" offset="0.546875"/><stop style="stop-color:#ff0143;stop-opacity:1;" offset="0.5625"/><stop style="stop-color:#ff0143;stop-opacity:1;" offset="0.578125"/><stop style="stop-color:#ff0142;stop-opacity:1;" offset="0.59375"/><stop style="stop-color:#ff0142;stop-opacity:1;" offset="0.609375"/><stop style="stop-color:#ff0141;stop-opacity:1;" offset="0.625"/><stop style="stop-color:#ff0141;stop-opacity:1;" offset="0.640625"/><stop style="stop-color:#ff0140;stop-opacity:1;" offset="0.65625"/><stop style="stop-color:#ff013f;stop-opacity:1;" offset="0.671875"/><stop style="stop-color:#ff013f;stop-opacity:1;" offset="0.6875"/><stop style="stop-color:#ff013e;stop-opacity:1;" offset="0.703125"/><stop style="stop-color:#ff013e;stop-opacity:1;" offset="0.71875"/><stop style="stop-color:#ff013d;stop-opacity:1;" offset="0.734375"/><stop style="stop-color:#ff013d;stop-opacity:1;" offset="0.75"/><stop style="stop-color:#ff013c;stop-opacity:1;" offset="0.765625"/><stop style="stop-color:#ff013b;stop-opacity:1;" offset="0.78125"/><stop style="stop-color:#ff013b;stop-opacity:1;" offset="0.796875"/><stop style="stop-color:#ff013a;stop-opacity:1;" offset="0.8125"/><stop style="stop-color:#ff013a;stop-opacity:1;" offset="0.828125"/><stop style="stop-color:#ff0139;stop-opacity:1;" offset="0.84375"/><stop style="stop-color:#ff0138;stop-opacity:1;" offset="0.859375"/><stop style="stop-color:#ff0138;stop-opacity:1;" offset="0.875"/><stop style="stop-color:#ff0137;stop-opacity:1;" offset="0.890625"/><stop style="stop-color:#ff0137;stop-opacity:1;" offset="0.90625"/><stop style="stop-color:#ff0136;stop-opacity:1;" offset="0.921875"/><stop style="stop-color:#ff0136;stop-opacity:1;" offset="0.9375"/><stop style="stop-color:#ff0135;stop-opacity:1;" offset="0.953125"/><stop style="stop-color:#ff0134;stop-opacity:1;" offset="0.96875"/><stop style="stop-color:#ff0134;stop-opacity:1;" offset="0.984375"/><stop style="stop-color:#ff0133;stop-opacity:1;" offset="1"/></linearGradient><clipPath id="de2e400a11"><path d="M 22 181 L 214 181 L 214 336 L 22 336 Z M 22 181 "/></clipPath><clipPath id="39f0620eaa"><path d="M 22.011719 181.734375 L 22.011719 286.804688 C 71.359375 291.234375 94.066406 305.277344 118.390625 335.785156 C 144.179688 302.109375 164.890625 291.324219 213.191406 286.804688 L 213.191406 181.734375 C 167.5 180.605469 146.601562 184.703125 118.390625 204.644531 C 90.304688 185.195312 69.46875 179.171875 22.011719 181.734375 Z M 49.660156 263.105469 L 49.660156 210.175781 C 76.886719 209.285156 91.890625 216.824219 118.390625 238.617188 C 141.328125 217.554688 156.132812 211.125 186.332031 210.175781 L 186.332031 263.105469 C 153.460938 271.785156 140.558594 280.328125 118.390625 298.65625 C 95.050781 278.703125 79.542969 270.621094 49.660156 263.105469 Z M 49.660156 263.105469 "/></clipPath><linearGradient x1="89.999998" gradientTransform="matrix(1.58,0,0,1.58,-120.189406,-11.81369)" y1="66" x2="210.999994" gradientUnits="userSpaceOnUse" y2="66" id="eb0aab37e2"><stop style="stop-color:#ff0158;stop-opacity:1;" offset="0"/><stop style="stop-color:#ff0158;stop-opacity:1;" offset="0.015625"/><stop style="stop-color:#ff0157;stop-opacity:1;" offset="0.03125"/><stop style="stop-color:#ff0157;stop-opacity:1;" offset="0.046875"/><stop style="stop-color:#ff0156;stop-opacity:1;" offset="0.0625"/><stop style="stop-color:#ff0155;stop-opacity:1;" offset="0.078125"/><stop style="stop-color:#ff0155;stop-opacity:1;" offset="0.09375"/><stop style="stop-color:#ff0154;stop-opacity:1;" offset="0.109375"/><stop style="stop-color:#ff0154;stop-opacity:1;" offset="0.125"/><stop style="stop-color:#ff0153;stop-opacity:1;" offset="0.140625"/><stop style="stop-color:#ff0152;stop-opacity:1;" offset="0.15625"/><stop style="stop-color:#ff0152;stop-opacity:1;" offset="0.171875"/><stop style="stop-color:#ff0151;stop-opacity:1;" offset="0.1875"/><stop style="stop-color:#ff0151;stop-opacity:1;" offset="0.203125"/><stop style="stop-color:#ff0150;stop-opacity:1;" offset="0.21875"/><stop style="stop-color:#ff0150;stop-opacity:1;" offset="0.234375"/><stop style="stop-color:#ff014f;stop-opacity:1;" offset="0.25"/><stop style="stop-color:#ff014e;stop-opacity:1;" offset="0.265625"/><stop style="stop-color:#ff014e;stop-opacity:1;" offset="0.28125"/><stop style="stop-color:#ff014d;stop-opacity:1;" offset="0.296875"/><stop style="stop-color:#ff014d;stop-opacity:1;" offset="0.3125"/><stop style="stop-color:#ff014c;stop-opacity:1;" offset="0.328125"/><stop style="stop-color:#ff014c;stop-opacity:1;" offset="0.34375"/><stop style="stop-color:#ff014b;stop-opacity:1;" offset="0.359375"/><stop style="stop-color:#ff014a;stop-opacity:1;" offset="0.375"/><stop style="stop-color:#ff014a;stop-opacity:1;" offset="0.390625"/><stop style="stop-color:#ff0149;stop-opacity:1;" offset="0.40625"/><stop style="stop-color:#ff0149;stop-opacity:1;" offset="0.421875"/><stop style="stop-color:#ff0148;stop-opacity:1;" offset="0.4375"/><stop style="stop-color:#ff0148;stop-opacity:1;" offset="0.453125"/><stop style="stop-color:#ff0147;stop-opacity:1;" offset="0.46875"/><stop style="stop-color:#ff0146;stop-opacity:1;" offset="0.484375"/><stop style="stop-color:#ff0146;stop-opacity:1;" offset="0.5"/><stop style="stop-color:#ff0145;stop-opacity:1;" offset="0.515625"/><stop style="stop-color:#ff0145;stop-opacity:1;" offset="0.53125"/><stop style="stop-color:#ff0144;stop-opacity:1;" offset="0.546875"/><stop style="stop-color:#ff0143;stop-opacity:1;" offset="0.5625"/><stop style="stop-color:#ff0143;stop-opacity:1;" offset="0.578125"/><stop style="stop-color:#ff0142;stop-opacity:1;" offset="0.59375"/><stop style="stop-color:#ff0142;stop-opacity:1;" offset="0.609375"/><stop style="stop-color:#ff0141;stop-opacity:1;" offset="0.625"/><stop style="stop-color:#ff0141;stop-opacity:1;" offset="0.640625"/><stop style="stop-color:#ff0140;stop-opacity:1;" offset="0.65625"/><stop style="stop-color:#ff013f;stop-opacity:1;" offset="0.671875"/><stop style="stop-color:#ff013f;stop-opacity:1;" offset="0.6875"/><stop style="stop-color:#ff013e;stop-opacity:1;" offset="0.703125"/><stop style="stop-color:#ff013e;stop-opacity:1;" offset="0.71875"/><stop style="stop-color:#ff013d;stop-opacity:1;" offset="0.734375"/><stop style="stop-color:#ff013d;stop-opacity:1;" offset="0.75"/><stop style="stop-color:#ff013c;stop-opacity:1;" offset="0.765625"/><stop style="stop-color:#ff013b;stop-opacity:1;" offset="0.78125"/><stop style="stop-color:#ff013b;stop-opacity:1;" offset="0.796875"/><stop style="stop-color:#ff013a;stop-opacity:1;" offset="0.8125"/><stop style="stop-color:#ff013a;stop-opacity:1;" offset="0.828125"/><stop style="stop-color:#ff0139;stop-opacity:1;" offset="0.84375"/><stop style="stop-color:#ff0138;stop-opacity:1;" offset="0.859375"/><stop style="stop-color:#ff0138;stop-opacity:1;" offset="0.875"/><stop style="stop-color:#ff0137;stop-opacity:1;" offset="0.890625"/><stop style="stop-color:#ff0137;stop-opacity:1;" offset="0.90625"/><stop style="stop-color:#ff0136;stop-opacity:1;" offset="0.921875"/><stop style="stop-color:#ff0136;stop-opacity:1;" offset="0.9375"/><stop style="stop-color:#ff0135;stop-opacity:1;" offset="0.953125"/><stop style="stop-color:#ff0134;stop-opacity:1;" offset="0.96875"/><stop style="stop-color:#ff0134;stop-opacity:1;" offset="0.984375"/><stop style="stop-color:#ff0133;stop-opacity:1;" offset="1"/></linearGradient></defs><g id="e6c678d2e6"><path style=" stroke:none;fill-rule:nonzero;fill:#ff0246;fill-opacity:1;" d="M 129.449219 364.226562 C 129.449219 371.207031 123.789062 376.867188 116.808594 376.867188 C 109.832031 376.867188 104.171875 371.207031 104.171875 364.226562 C 104.171875 357.246094 109.832031 351.585938 116.808594 351.585938 C 123.789062 351.585938 129.449219 357.246094 129.449219 364.226562 Z M 129.449219 364.226562 "/><g clip-rule="nonzero" clip-path="url(#4c97ed3c2f)"><g clip-rule="nonzero" clip-path="url(#b65a62b492)"><path style=" stroke:none;fill-rule:nonzero;fill:url(#33aff79bb3);" d="M 22.011719 91.988281 L 22.011719 160.40625 L 213.191406 160.40625 L 213.191406 91.988281 Z M 22.011719 91.988281 "/></g></g><g clip-rule="nonzero" clip-path="url(#de2e400a11)"><g clip-rule="evenodd" clip-path="url(#39f0620eaa)"><path style=" stroke:none;fill-rule:nonzero;fill:url(#eb0aab37e2);" d="M 22.011719 179.171875 L 22.011719 335.785156 L 213.191406 335.785156 L 213.191406 179.171875 Z M 22.011719 179.171875 "/></g></g><g style="fill:#fffbf9;fill-opacity:1;"><g transform="translate(322.558449, 179.438774)"><path style="stroke:none" d="M 87.5 0 L 87.375 -51.046875 L 62.34375 -9 L 53.46875 -9 L 28.5625 -49.953125 L 28.5625 0 L 10.09375 0 L 10.09375 -85.078125 L 26.375 -85.078125 L 58.21875 -32.203125 L 89.5625 -85.078125 L 105.734375 -85.078125 L 105.96875 0 Z M 87.5 0 "/></g></g><g style="fill:#fffbf9;fill-opacity:1;"><g transform="translate(438.619129, 179.438774)"><path style="stroke:none" d="M 38.046875 1.453125 C 31.316406 1.453125 24.8125 0.539062 18.53125 -1.28125 C 12.25 -3.101562 7.207031 -5.472656 3.40625 -8.390625 L 10.09375 -23.21875 C 13.738281 -20.539062 18.070312 -18.390625 23.09375 -16.765625 C 28.113281 -15.148438 33.132812 -14.34375 38.15625 -14.34375 C 43.75 -14.34375 47.878906 -15.171875 50.546875 -16.828125 C 53.222656 -18.492188 54.5625 -20.703125 54.5625 -23.453125 C 54.5625 -25.484375 53.769531 -27.164062 52.1875 -28.5 C 50.613281 -29.832031 48.59375 -30.90625 46.125 -31.71875 C 43.65625 -32.53125 40.3125 -33.421875 36.09375 -34.390625 C 29.613281 -35.929688 24.304688 -37.472656 20.171875 -39.015625 C 16.035156 -40.554688 12.488281 -43.023438 9.53125 -46.421875 C 6.582031 -49.828125 5.109375 -54.363281 5.109375 -60.03125 C 5.109375 -64.976562 6.441406 -69.457031 9.109375 -73.46875 C 11.785156 -77.476562 15.816406 -80.65625 21.203125 -83 C 26.585938 -85.351562 33.171875 -86.53125 40.953125 -86.53125 C 46.378906 -86.53125 51.6875 -85.878906 56.875 -84.578125 C 62.0625 -83.285156 66.597656 -81.425781 70.484375 -79 L 64.40625 -64.046875 C 56.550781 -68.503906 48.691406 -70.734375 40.828125 -70.734375 C 35.328125 -70.734375 31.257812 -69.84375 28.625 -68.0625 C 25.988281 -66.28125 24.671875 -63.929688 24.671875 -61.015625 C 24.671875 -58.097656 26.1875 -55.925781 29.21875 -54.5 C 32.257812 -53.082031 36.898438 -51.6875 43.140625 -50.3125 C 49.617188 -48.769531 54.925781 -47.226562 59.0625 -45.6875 C 63.195312 -44.15625 66.742188 -41.726562 69.703125 -38.40625 C 72.660156 -35.082031 74.140625 -30.582031 74.140625 -24.90625 C 74.140625 -20.050781 72.78125 -15.617188 70.0625 -11.609375 C 67.34375 -7.597656 63.269531 -4.414062 57.84375 -2.0625 C 52.414062 0.28125 45.816406 1.453125 38.046875 1.453125 Z M 38.046875 1.453125 "/></g></g><g style="fill:#fffbf9;fill-opacity:1;"><g transform="translate(516.154952, 179.438774)"><path style="stroke:none" d=""/></g></g><g style="fill:#fffbf9;fill-opacity:1;"><g transform="translate(550.54781, 179.438774)"><path style="stroke:none" d="M 75.953125 -15.796875 L 75.953125 0 L 10.09375 0 L 10.09375 -85.078125 L 74.375 -85.078125 L 74.375 -69.265625 L 29.65625 -69.265625 L 29.65625 -50.796875 L 69.15625 -50.796875 L 69.15625 -35.484375 L 29.65625 -35.484375 L 29.65625 -15.796875 Z M 75.953125 -15.796875 "/></g></g><g style="fill:#fffbf9;fill-opacity:1;"><g transform="translate(632.094124, 179.438774)"><path style="stroke:none" d="M 88.109375 -85.078125 L 88.109375 0 L 71.953125 0 L 29.53125 -51.65625 L 29.53125 0 L 10.09375 0 L 10.09375 -85.078125 L 26.375 -85.078125 L 68.671875 -33.421875 L 68.671875 -85.078125 Z M 88.109375 -85.078125 "/></g></g><g style="fill:#fffbf9;fill-opacity:1;"><g transform="translate(730.289972, 179.438774)"><path style="stroke:none" d="M 67.578125 -43.875 L 85.5625 -43.875 L 85.5625 -9.359375 C 80.9375 -5.867188 75.585938 -3.191406 69.515625 -1.328125 C 63.441406 0.523438 57.328125 1.453125 51.171875 1.453125 C 42.335938 1.453125 34.394531 -0.425781 27.34375 -4.1875 C 20.289062 -7.957031 14.757812 -13.179688 10.75 -19.859375 C 6.738281 -26.546875 4.734375 -34.101562 4.734375 -42.53125 C 4.734375 -50.957031 6.738281 -58.515625 10.75 -65.203125 C 14.757812 -71.890625 20.328125 -77.113281 27.453125 -80.875 C 34.585938 -84.644531 42.613281 -86.53125 51.53125 -86.53125 C 58.976562 -86.53125 65.738281 -85.273438 71.8125 -82.765625 C 77.894531 -80.253906 83.003906 -76.609375 87.140625 -71.828125 L 74.5 -60.15625 C 68.425781 -66.5625 61.09375 -69.765625 52.5 -69.765625 C 47.070312 -69.765625 42.25 -68.628906 38.03125 -66.359375 C 33.820312 -64.085938 30.539062 -60.882812 28.1875 -56.75 C 25.84375 -52.625 24.671875 -47.882812 24.671875 -42.53125 C 24.671875 -37.269531 25.84375 -32.570312 28.1875 -28.4375 C 30.539062 -24.300781 33.800781 -21.078125 37.96875 -18.765625 C 42.144531 -16.460938 46.910156 -15.3125 52.265625 -15.3125 C 57.929688 -15.3125 63.035156 -16.523438 67.578125 -18.953125 Z M 67.578125 -43.875 "/></g></g><g style="fill:#fffbf9;fill-opacity:1;"><g transform="translate(823.989205, 179.438774)"><path style="stroke:none" d="M 10.09375 -85.078125 L 29.78125 -85.078125 L 29.78125 0 L 10.09375 0 Z M 10.09375 -85.078125 "/></g></g><g style="fill:#fffbf9;fill-opacity:1;"><g transform="translate(863.850882, 179.438774)"><path style="stroke:none" d="M 88.109375 -85.078125 L 88.109375 0 L 71.953125 0 L 29.53125 -51.65625 L 29.53125 0 L 10.09375 0 L 10.09375 -85.078125 L 26.375 -85.078125 L 68.671875 -33.421875 L 68.671875 -85.078125 Z M 88.109375 -85.078125 "/></g></g><g style="fill:#fffbf9;fill-opacity:1;"><g transform="translate(962.04673, 179.438774)"><path style="stroke:none" d="M 75.953125 -15.796875 L 75.953125 0 L 10.09375 0 L 10.09375 -85.078125 L 74.375 -85.078125 L 74.375 -69.265625 L 29.65625 -69.265625 L 29.65625 -50.796875 L 69.15625 -50.796875 L 69.15625 -35.484375 L 29.65625 -35.484375 L 29.65625 -15.796875 Z M 75.953125 -15.796875 "/></g></g><g style="fill:#fffbf9;fill-opacity:1;"><g transform="translate(1043.59306, 179.438774)"><path style="stroke:none" d="M 75.953125 -15.796875 L 75.953125 0 L 10.09375 0 L 10.09375 -85.078125 L 74.375 -85.078125 L 74.375 -69.265625 L 29.65625 -69.265625 L 29.65625 -50.796875 L 69.15625 -50.796875 L 69.15625 -35.484375 L 29.65625 -35.484375 L 29.65625 -15.796875 Z M 75.953125 -15.796875 "/></g></g><g style="fill:#fffbf9;fill-opacity:1;"><g transform="translate(1125.139327, 179.438774)"><path style="stroke:none" d="M 64.296875 0 L 47.890625 -23.703125 L 29.78125 -23.703125 L 29.78125 0 L 10.09375 0 L 10.09375 -85.078125 L 46.90625 -85.078125 C 54.445312 -85.078125 60.988281 -83.816406 66.53125 -81.296875 C 72.082031 -78.785156 76.359375 -75.222656 79.359375 -70.609375 C 82.359375 -65.992188 83.859375 -60.523438 83.859375 -54.203125 C 83.859375 -47.878906 82.335938 -42.425781 79.296875 -37.84375 C 76.253906 -33.269531 71.941406 -29.769531 66.359375 -27.34375 L 85.4375 0 Z M 63.921875 -54.203125 C 63.921875 -58.984375 62.378906 -62.648438 59.296875 -65.203125 C 56.222656 -67.753906 51.726562 -69.03125 45.8125 -69.03125 L 29.78125 -69.03125 L 29.78125 -39.375 L 45.8125 -39.375 C 51.726562 -39.375 56.222656 -40.671875 59.296875 -43.265625 C 62.378906 -45.859375 63.921875 -49.503906 63.921875 -54.203125 Z M 63.921875 -54.203125 "/></g></g><g style="fill:#fffbf9;fill-opacity:1;"><g transform="translate(1214.463529, 179.438774)"><path style="stroke:none" d="M 10.09375 -85.078125 L 29.78125 -85.078125 L 29.78125 0 L 10.09375 0 Z M 10.09375 -85.078125 "/></g></g><g style="fill:#fffbf9;fill-opacity:1;"><g transform="translate(1254.325206, 179.438774)"><path style="stroke:none" d="M 88.109375 -85.078125 L 88.109375 0 L 71.953125 0 L 29.53125 -51.65625 L 29.53125 0 L 10.09375 0 L 10.09375 -85.078125 L 26.375 -85.078125 L 68.671875 -33.421875 L 68.671875 -85.078125 Z M 88.109375 -85.078125 "/></g></g><g style="fill:#fffbf9;fill-opacity:1;"><g transform="translate(1352.521054, 179.438774)"><path style="stroke:none" d="M 67.578125 -43.875 L 85.5625 -43.875 L 85.5625 -9.359375 C 80.9375 -5.867188 75.585938 -3.191406 69.515625 -1.328125 C 63.441406 0.523438 57.328125 1.453125 51.171875 1.453125 C 42.335938 1.453125 34.394531 -0.425781 27.34375 -4.1875 C 20.289062 -7.957031 14.757812 -13.179688 10.75 -19.859375 C 6.738281 -26.546875 4.734375 -34.101562 4.734375 -42.53125 C 4.734375 -50.957031 6.738281 -58.515625 10.75 -65.203125 C 14.757812 -71.890625 20.328125 -77.113281 27.453125 -80.875 C 34.585938 -84.644531 42.613281 -86.53125 51.53125 -86.53125 C 58.976562 -86.53125 65.738281 -85.273438 71.8125 -82.765625 C 77.894531 -80.253906 83.003906 -76.609375 87.140625 -71.828125 L 74.5 -60.15625 C 68.425781 -66.5625 61.09375 -69.765625 52.5 -69.765625 C 47.070312 -69.765625 42.25 -68.628906 38.03125 -66.359375 C 33.820312 -64.085938 30.539062 -60.882812 28.1875 -56.75 C 25.84375 -52.625 24.671875 -47.882812 24.671875 -42.53125 C 24.671875 -37.269531 25.84375 -32.570312 28.1875 -28.4375 C 30.539062 -24.300781 33.800781 -21.078125 37.96875 -18.765625 C 42.144531 -16.460938 46.910156 -15.3125 52.265625 -15.3125 C 57.929688 -15.3125 63.035156 -16.523438 67.578125 -18.953125 Z M 67.578125 -43.875 "/></g></g><g style="fill:#fffbf9;fill-opacity:1;"><g transform="translate(1446.220357, 179.438774)"><path style="stroke:none" d=""/></g></g><g style="fill:#fffbf9;fill-opacity:1;"><g transform="translate(322.558449, 320.177455)"><path style="stroke:none" d="M 38.953125 0.5625 C 32.492188 0.5625 26.671875 -0.863281 21.484375 -3.71875 C 16.296875 -6.582031 12.222656 -10.546875 9.265625 -15.609375 C 6.316406 -20.671875 4.84375 -26.34375 4.84375 -32.625 C 4.84375 -38.894531 6.316406 -44.5625 9.265625 -49.625 C 12.222656 -54.695312 16.3125 -58.660156 21.53125 -61.515625 C 26.75 -64.367188 32.585938 -65.796875 39.046875 -65.796875 C 43.898438 -65.796875 48.375 -64.988281 52.46875 -63.375 C 56.570312 -61.757812 60.050781 -59.398438 62.90625 -56.296875 L 58.53125 -51.921875 C 53.4375 -57.078125 47.003906 -59.65625 39.234375 -59.65625 C 34.078125 -59.65625 29.382812 -58.472656 25.15625 -56.109375 C 20.9375 -53.742188 17.628906 -50.507812 15.234375 -46.40625 C 12.847656 -42.3125 11.65625 -37.71875 11.65625 -32.625 C 11.65625 -27.53125 12.847656 -22.929688 15.234375 -18.828125 C 17.628906 -14.722656 20.9375 -11.488281 25.15625 -9.125 C 29.382812 -6.769531 34.078125 -5.59375 39.234375 -5.59375 C 47.066406 -5.59375 53.5 -8.203125 58.53125 -13.421875 L 62.90625 -9.046875 C 60.050781 -5.929688 56.554688 -3.550781 52.421875 -1.90625 C 48.296875 -0.257812 43.804688 0.5625 38.953125 0.5625 Z M 38.953125 0.5625 "/></g></g><g style="fill:#fffbf9;fill-opacity:1;"><g transform="translate(389.569744, 320.177455)"><path style="stroke:none" d="M 39.140625 0.5625 C 32.679688 0.5625 26.828125 -0.878906 21.578125 -3.765625 C 16.328125 -6.660156 12.222656 -10.625 9.265625 -15.65625 C 6.316406 -20.6875 4.84375 -26.34375 4.84375 -32.625 C 4.84375 -38.894531 6.316406 -44.546875 9.265625 -49.578125 C 12.222656 -54.617188 16.328125 -58.582031 21.578125 -61.46875 C 26.828125 -64.351562 32.679688 -65.796875 39.140625 -65.796875 C 45.609375 -65.796875 51.4375 -64.367188 56.625 -61.515625 C 61.8125 -58.660156 65.894531 -54.695312 68.875 -49.625 C 71.851562 -44.5625 73.34375 -38.894531 73.34375 -32.625 C 73.34375 -26.34375 71.851562 -20.671875 68.875 -15.609375 C 65.894531 -10.546875 61.8125 -6.582031 56.625 -3.71875 C 51.4375 -0.863281 45.609375 0.5625 39.140625 0.5625 Z M 39.140625 -5.59375 C 44.296875 -5.59375 48.957031 -6.753906 53.125 -9.078125 C 57.289062 -11.410156 60.550781 -14.644531 62.90625 -18.78125 C 65.269531 -22.914062 66.453125 -27.53125 66.453125 -32.625 C 66.453125 -37.71875 65.269531 -42.328125 62.90625 -46.453125 C 60.550781 -50.585938 57.289062 -53.820312 53.125 -56.15625 C 48.957031 -58.488281 44.296875 -59.65625 39.140625 -59.65625 C 33.984375 -59.65625 29.304688 -58.488281 25.109375 -56.15625 C 20.921875 -53.820312 17.628906 -50.585938 15.234375 -46.453125 C 12.847656 -42.328125 11.65625 -37.71875 11.65625 -32.625 C 11.65625 -27.53125 12.847656 -22.914062 15.234375 -18.78125 C 17.628906 -14.644531 20.921875 -11.410156 25.109375 -9.078125 C 29.304688 -6.753906 33.984375 -5.59375 39.140625 -5.59375 Z M 39.140625 -5.59375 "/></g></g><g style="fill:#fffbf9;fill-opacity:1;"><g transform="translate(467.765119, 320.177455)"><path style="stroke:none" d="M 10.625 -65.234375 L 17.515625 -65.234375 L 17.515625 -5.96875 L 54.0625 -5.96875 L 54.0625 0 L 10.625 0 Z M 10.625 -65.234375 "/></g></g><g style="fill:#fffbf9;fill-opacity:1;"><g transform="translate(522.66032, 320.177455)"><path style="stroke:none" d="M 10.625 -65.234375 L 17.515625 -65.234375 L 17.515625 -5.96875 L 54.0625 -5.96875 L 54.0625 0 L 10.625 0 Z M 10.625 -65.234375 "/></g></g><g style="fill:#fffbf9;fill-opacity:1;"><g transform="translate(577.55552, 320.177455)"><path style="stroke:none" d="M 56.765625 -5.96875 L 56.765625 0 L 10.625 0 L 10.625 -65.234375 L 55.359375 -65.234375 L 55.359375 -59.28125 L 17.515625 -59.28125 L 17.515625 -36.0625 L 51.265625 -36.0625 L 51.265625 -30.203125 L 17.515625 -30.203125 L 17.515625 -5.96875 Z M 56.765625 -5.96875 "/></g></g><g style="fill:#fffbf9;fill-opacity:1;"><g transform="translate(639.906799, 320.177455)"><path style="stroke:none" d="M 56.578125 -32.625 L 63.1875 -32.625 L 63.1875 -7.734375 C 60.144531 -5.066406 56.539062 -3.015625 52.375 -1.578125 C 48.21875 -0.148438 43.835938 0.5625 39.234375 0.5625 C 32.710938 0.5625 26.84375 -0.863281 21.625 -3.71875 C 16.40625 -6.582031 12.300781 -10.546875 9.3125 -15.609375 C 6.332031 -20.671875 4.84375 -26.34375 4.84375 -32.625 C 4.84375 -38.894531 6.332031 -44.5625 9.3125 -49.625 C 12.300781 -54.695312 16.40625 -58.660156 21.625 -61.515625 C 26.84375 -64.367188 32.742188 -65.796875 39.328125 -65.796875 C 44.296875 -65.796875 48.863281 -65.003906 53.03125 -63.421875 C 57.195312 -61.835938 60.707031 -59.492188 63.5625 -56.390625 L 59.28125 -52 C 54.125 -57.101562 47.566406 -59.65625 39.609375 -59.65625 C 34.328125 -59.65625 29.554688 -58.488281 25.296875 -56.15625 C 21.046875 -53.820312 17.707031 -50.585938 15.28125 -46.453125 C 12.863281 -42.328125 11.65625 -37.71875 11.65625 -32.625 C 11.65625 -27.53125 12.863281 -22.929688 15.28125 -18.828125 C 17.707031 -14.722656 21.03125 -11.488281 25.25 -9.125 C 29.476562 -6.769531 34.234375 -5.59375 39.515625 -5.59375 C 46.222656 -5.59375 51.910156 -7.269531 56.578125 -10.625 Z M 56.578125 -32.625 "/></g></g><g style="fill:#fffbf9;fill-opacity:1;"><g transform="translate(711.950939, 320.177455)"><path style="stroke:none" d="M 56.765625 -5.96875 L 56.765625 0 L 10.625 0 L 10.625 -65.234375 L 55.359375 -65.234375 L 55.359375 -59.28125 L 17.515625 -59.28125 L 17.515625 -36.0625 L 51.265625 -36.0625 L 51.265625 -30.203125 L 17.515625 -30.203125 L 17.515625 -5.96875 Z M 56.765625 -5.96875 "/></g></g><g style="fill:#fffbf9;fill-opacity:1;"><g transform="translate(774.302202, 320.177455)"><path style="stroke:none" d="M 9.96875 -9.6875 C 11.394531 -9.6875 12.570312 -9.203125 13.5 -8.234375 C 14.4375 -7.273438 14.90625 -6.082031 14.90625 -4.65625 C 14.90625 -3.914062 14.796875 -3.109375 14.578125 -2.234375 C 14.367188 -1.367188 14.046875 -0.375 13.609375 0.75 L 9.6875 13.609375 L 5.21875 13.609375 L 8.390625 0.09375 C 7.390625 -0.21875 6.578125 -0.789062 5.953125 -1.625 C 5.335938 -2.46875 5.03125 -3.476562 5.03125 -4.65625 C 5.03125 -6.082031 5.492188 -7.273438 6.421875 -8.234375 C 7.359375 -9.203125 8.539062 -9.6875 9.96875 -9.6875 Z M 9.96875 -9.6875 "/></g></g><g style="fill:#fffbf9;fill-opacity:1;"><g transform="translate(794.060736, 320.177455)"><path style="stroke:none" d=""/></g></g><g style="fill:#fffbf9;fill-opacity:1;"><g transform="translate(818.479316, 320.177455)"><path style="stroke:none" d="M 51.734375 -33.640625 C 56.015625 -32.710938 59.320312 -30.863281 61.65625 -28.09375 C 63.988281 -25.332031 65.15625 -21.773438 65.15625 -17.421875 C 65.15625 -11.835938 63.085938 -7.535156 58.953125 -4.515625 C 54.816406 -1.503906 48.710938 0 40.640625 0 L 10.625 0 L 10.625 -65.234375 L 38.765625 -65.234375 C 46.035156 -65.234375 51.675781 -63.773438 55.6875 -60.859375 C 59.695312 -57.941406 61.703125 -53.8125 61.703125 -48.46875 C 61.703125 -44.863281 60.816406 -41.800781 59.046875 -39.28125 C 57.273438 -36.769531 54.835938 -34.890625 51.734375 -33.640625 Z M 17.515625 -59.5625 L 17.515625 -35.890625 L 38.3125 -35.890625 C 43.59375 -35.890625 47.660156 -36.894531 50.515625 -38.90625 C 53.367188 -40.925781 54.796875 -43.863281 54.796875 -47.71875 C 54.796875 -51.570312 53.367188 -54.507812 50.515625 -56.53125 C 47.660156 -58.550781 43.59375 -59.5625 38.3125 -59.5625 Z M 40.546875 -5.6875 C 46.378906 -5.6875 50.785156 -6.679688 53.765625 -8.671875 C 56.753906 -10.660156 58.25 -13.765625 58.25 -17.984375 C 58.25 -26.128906 52.347656 -30.203125 40.546875 -30.203125 L 17.515625 -30.203125 L 17.515625 -5.6875 Z M 40.546875 -5.6875 "/></g></g><g style="fill:#fffbf9;fill-opacity:1;"><g transform="translate(888.752619, 320.177455)"><path style="stroke:none" d="M 56.765625 -5.96875 L 56.765625 0 L 10.625 0 L 10.625 -65.234375 L 55.359375 -65.234375 L 55.359375 -59.28125 L 17.515625 -59.28125 L 17.515625 -36.0625 L 51.265625 -36.0625 L 51.265625 -30.203125 L 17.515625 -30.203125 L 17.515625 -5.96875 Z M 56.765625 -5.96875 "/></g></g><g style="fill:#fffbf9;fill-opacity:1;"><g transform="translate(951.103883, 320.177455)"><path style="stroke:none" d="M 65.15625 -65.234375 L 65.15625 0 L 59.46875 0 L 17.515625 -52.9375 L 17.515625 0 L 10.625 0 L 10.625 -65.234375 L 16.3125 -65.234375 L 58.34375 -12.296875 L 58.34375 -65.234375 Z M 65.15625 -65.234375 "/></g></g><g style="fill:#fffbf9;fill-opacity:1;"><g transform="translate(1026.876022, 320.177455)"><path style="stroke:none" d="M 56.578125 -32.625 L 63.1875 -32.625 L 63.1875 -7.734375 C 60.144531 -5.066406 56.539062 -3.015625 52.375 -1.578125 C 48.21875 -0.148438 43.835938 0.5625 39.234375 0.5625 C 32.710938 0.5625 26.84375 -0.863281 21.625 -3.71875 C 16.40625 -6.582031 12.300781 -10.546875 9.3125 -15.609375 C 6.332031 -20.671875 4.84375 -26.34375 4.84375 -32.625 C 4.84375 -38.894531 6.332031 -44.5625 9.3125 -49.625 C 12.300781 -54.695312 16.40625 -58.660156 21.625 -61.515625 C 26.84375 -64.367188 32.742188 -65.796875 39.328125 -65.796875 C 44.296875 -65.796875 48.863281 -65.003906 53.03125 -63.421875 C 57.195312 -61.835938 60.707031 -59.492188 63.5625 -56.390625 L 59.28125 -52 C 54.125 -57.101562 47.566406 -59.65625 39.609375 -59.65625 C 34.328125 -59.65625 29.554688 -58.488281 25.296875 -56.15625 C 21.046875 -53.820312 17.707031 -50.585938 15.28125 -46.453125 C 12.863281 -42.328125 11.65625 -37.71875 11.65625 -32.625 C 11.65625 -27.53125 12.863281 -22.929688 15.28125 -18.828125 C 17.707031 -14.722656 21.03125 -11.488281 25.25 -9.125 C 29.476562 -6.769531 34.234375 -5.59375 39.515625 -5.59375 C 46.222656 -5.59375 51.910156 -7.269531 56.578125 -10.625 Z M 56.578125 -32.625 "/></g></g><g style="fill:#fffbf9;fill-opacity:1;"><g transform="translate(1098.920162, 320.177455)"><path style="stroke:none" d="M 51.546875 -17.421875 L 15.1875 -17.421875 L 7.359375 0 L 0.1875 0 L 30.015625 -65.234375 L 36.8125 -65.234375 L 66.640625 0 L 59.375 0 Z M 49.03125 -23.015625 L 33.359375 -58.0625 L 17.703125 -23.015625 Z M 49.03125 -23.015625 "/></g></g><g style="fill:#fffbf9;fill-opacity:1;"><g transform="translate(1165.745114, 320.177455)"><path style="stroke:none" d="M 10.625 -65.234375 L 17.515625 -65.234375 L 17.515625 -5.96875 L 54.0625 -5.96875 L 54.0625 0 L 10.625 0 Z M 10.625 -65.234375 "/></g></g><g style="fill:#fffbf9;fill-opacity:1;"><g transform="translate(1220.640314, 320.177455)"><path style="stroke:none" d="M 36.90625 0.5625 C 28.457031 0.5625 21.867188 -1.859375 17.140625 -6.703125 C 12.421875 -11.554688 10.0625 -18.613281 10.0625 -27.875 L 10.0625 -65.234375 L 16.96875 -65.234375 L 16.96875 -28.140625 C 16.96875 -20.566406 18.675781 -14.914062 22.09375 -11.1875 C 25.507812 -7.457031 30.445312 -5.59375 36.90625 -5.59375 C 43.425781 -5.59375 48.394531 -7.457031 51.8125 -11.1875 C 55.238281 -14.914062 56.953125 -20.566406 56.953125 -28.140625 L 56.953125 -65.234375 L 63.65625 -65.234375 L 63.65625 -27.875 C 63.65625 -18.613281 61.304688 -11.554688 56.609375 -6.703125 C 51.921875 -1.859375 45.351562 0.5625 36.90625 0.5625 Z M 36.90625 0.5625 "/></g></g><g style="fill:#fffbf9;fill-opacity:1;"><g transform="translate(1294.455258, 320.177455)"><path style="stroke:none" d="M 55.171875 0 L 40.265625 -20.96875 C 38.585938 -20.78125 36.847656 -20.6875 35.046875 -20.6875 L 17.515625 -20.6875 L 17.515625 0 L 10.625 0 L 10.625 -65.234375 L 35.046875 -65.234375 C 43.367188 -65.234375 49.890625 -63.242188 54.609375 -59.265625 C 59.335938 -55.296875 61.703125 -49.832031 61.703125 -42.875 C 61.703125 -37.78125 60.410156 -33.476562 57.828125 -29.96875 C 55.253906 -26.457031 51.570312 -23.925781 46.78125 -22.375 L 62.71875 0 Z M 34.859375 -26.5625 C 41.316406 -26.5625 46.253906 -27.988281 49.671875 -30.84375 C 53.085938 -33.707031 54.796875 -37.71875 54.796875 -42.875 C 54.796875 -48.15625 53.085938 -52.207031 49.671875 -55.03125 C 46.253906 -57.863281 41.316406 -59.28125 34.859375 -59.28125 L 17.515625 -59.28125 L 17.515625 -26.5625 Z M 34.859375 -26.5625 "/></g></g><g style="fill:#fffbf9;fill-opacity:1;"><g transform="translate(1361.839319, 320.177455)"><path style="stroke:none" d="M 36.90625 0.5625 C 28.457031 0.5625 21.867188 -1.859375 17.140625 -6.703125 C 12.421875 -11.554688 10.0625 -18.613281 10.0625 -27.875 L 10.0625 -65.234375 L 16.96875 -65.234375 L 16.96875 -28.140625 C 16.96875 -20.566406 18.675781 -14.914062 22.09375 -11.1875 C 25.507812 -7.457031 30.445312 -5.59375 36.90625 -5.59375 C 43.425781 -5.59375 48.394531 -7.457031 51.8125 -11.1875 C 55.238281 -14.914062 56.953125 -20.566406 56.953125 -28.140625 L 56.953125 -65.234375 L 63.65625 -65.234375 L 63.65625 -27.875 C 63.65625 -18.613281 61.304688 -11.554688 56.609375 -6.703125 C 51.921875 -1.859375 45.351562 0.5625 36.90625 0.5625 Z M 36.90625 0.5625 "/></g></g></g></svg>